<?xml version="1.0" encoding="UTF-8" standalone="no"?>
<!-- Created with Inkscape (http://www.inkscape.org/) -->

<svg
   width="400"
   height="750"
   viewBox="0 0 400 750"
   version="1.1"
   id="svg1"
   xmlns:xlink="http://www.w3.org/1999/xlink"
   xmlns="http://www.w3.org/2000/svg"
   xmlns:svg="http://www.w3.org/2000/svg"
   xmlns:rdf="http://www.w3.org/1999/02/22-rdf-syntax-ns#"
   xmlns:cc="http://creativecommons.org/ns#">
  <defs
     id="defs1">
    <linearGradient
       id="linearGradient19">
      <stop
         offset="0"
         style="stop-color:#b5b1b1;stop-opacity:1;"
         id="stop18" />
      <stop
         offset="1"
         style="stop-color:#dfddd9"
         id="stop19" />
    </linearGradient>
    <linearGradient
       xlink:href="#linearGradient5116"
       id="linearGradient5802"
       y1="42.505802"
       x1="28.75"
       y2="95.622726"
       gradientUnits="userSpaceOnUse"
       x2="28.75025" />
    <linearGradient
       id="linearGradient5116">
      <stop
         offset="0"
         style="stop-color:#f5f5f5"
         id="stop26" />
      <stop
         offset="1"
         style="stop-color:#dfddd9"
         id="stop27" />
    </linearGradient>
    <linearGradient
       xlink:href="#linearGradient5096"
       id="linearGradient5183"
       y1="48.751598"
       x1="22.5"
       y2="42.505802"
       gradientUnits="userSpaceOnUse"
       x2="28.75" />
    <linearGradient
       id="linearGradient5096">
      <stop
         offset="0"
         style="stop-opacity:.278"
         id="stop28" />
      <stop
         offset="1"
         style="stop-opacity:.235"
         id="stop29" />
    </linearGradient>
    <linearGradient
       gradientTransform="matrix(0.8333335,0,0,1,4.7916619,0)"
       xlink:href="#linearGradient5116"
       id="linearGradient5959"
       y1="43.755013"
       x1="28.749935"
       y2="86.251488"
       gradientUnits="userSpaceOnUse"
       x2="28.75" />
    <linearGradient
       xlink:href="#linearGradient5116"
       id="linearGradient5274"
       y1="50"
       x1="-55"
       y2="50"
       gradientUnits="userSpaceOnUse"
       x2="-7.5" />
    <linearGradient
       gradientTransform="matrix(0.83333333,0,0,1,4.7916667,0)"
       xlink:href="#linearGradient5116"
       id="linearGradient6011"
       y1="81.251602"
       x1="21.250023"
       y2="81.251564"
       gradientUnits="userSpaceOnUse"
       x2="85.037804" />
    <linearGradient
       gradientTransform="matrix(0.98461538,0,0,0.98461543,53.769388,-10.23087)"
       xlink:href="#linearGradient5116"
       id="linearGradient5965"
       y1="12.503391"
       x1="-47.500202"
       y2="55"
       gradientUnits="userSpaceOnUse"
       x2="-47.50016" />
    <linearGradient
       gradientTransform="matrix(0.83333333,0,0,1,4.7916667,0)"
       xlink:href="#linearGradient5012"
       id="linearGradient6201"
       y1="43.751652"
       x1="28.75"
       y2="86.251404"
       gradientUnits="userSpaceOnUse"
       x2="28.75" />
    <linearGradient
       id="linearGradient5012">
      <stop
         offset="0"
         style="stop-color:#d7d6d5"
         id="stop11" />
      <stop
         offset="1"
         style="stop-color:#c5c3c1"
         id="stop12" />
    </linearGradient>
    <linearGradient
       xlink:href="#linearGradient5012-9"
       id="linearGradient6119"
       y1="48.751595"
       x1="75.625374"
       y2="48.751595"
       gradientUnits="userSpaceOnUse"
       x2="22.500326" />
    <linearGradient
       id="linearGradient5012-9">
      <stop
         offset="0"
         style="stop-color:#d7d6d5"
         id="stop58" />
      <stop
         offset="0.94117182"
         style="stop-color:#c6c4c2"
         id="stop59" />
      <stop
         offset="1"
         style="stop-color:#b7b4b1"
         id="stop60" />
    </linearGradient>
    <linearGradient
       xlink:href="#linearGradient5048"
       id="linearGradient5056"
       y1="48.751598"
       x1="22.500326"
       y2="42.501553"
       gradientUnits="userSpaceOnUse"
       x2="28.750055" />
    <linearGradient
       id="linearGradient5048">
      <stop
         offset="0"
         style="stop-opacity:.463"
         id="stop22" />
      <stop
         offset="1"
         style="stop-opacity:.392"
         id="stop23" />
    </linearGradient>
    <linearGradient
       gradientTransform="matrix(0.833375,0,0,1,4.7904687,0)"
       xlink:href="#linearGradient5012-9"
       id="linearGradient4970"
       y1="48.751598"
       x1="84.996811"
       y2="48.751595"
       gradientUnits="userSpaceOnUse"
       x2="21.249685" />
    <linearGradient
       gradientTransform="matrix(0.98461538,0,0,-0.98461539,188.76923,56.230769)"
       xlink:href="#linearGradient5012"
       id="linearGradient6260"
       y1="12.5"
       x1="-47.5"
       y2="55"
       gradientUnits="userSpaceOnUse"
       x2="-47.5" />
    <linearGradient
       xlink:href="#linearGradient5116"
       id="linearGradient5967"
       y1="95.622704"
       x1="28.749746"
       y2="42.501747"
       gradientUnits="userSpaceOnUse"
       x2="28.7498" />
    <linearGradient
       xlink:href="#linearGradient5369"
       id="linearGradient5101"
       y1="48.751598"
       x1="22.5"
       y2="42.505802"
       gradientUnits="userSpaceOnUse"
       x2="28.75" />
    <linearGradient
       id="linearGradient5369">
      <stop
         offset="0"
         style="stop-opacity:.278"
         id="stop54" />
      <stop
         offset="1"
         style="stop-opacity:.463"
         id="stop55" />
    </linearGradient>
    <linearGradient
       gradientTransform="matrix(0.8333115,0,0,1,4.7922944,0)"
       xlink:href="#linearGradient5116"
       id="linearGradient5886"
       y1="81.251801"
       x1="84.996414"
       y2="81.251602"
       gradientUnits="userSpaceOnUse"
       x2="21.250023" />
    <linearGradient
       xlink:href="#linearGradient5012"
       id="linearGradient6236"
       y1="48.751595"
       x1="22.500391"
       y2="48.751595"
       gradientUnits="userSpaceOnUse"
       x2="75.625435" />
    <linearGradient
       gradientTransform="matrix(0.83333333,0,0,1,4.7916667,0)"
       xlink:href="#linearGradient5012"
       id="linearGradient6229"
       y1="48.751598"
       x1="21.250074"
       y2="48.751598"
       gradientUnits="userSpaceOnUse"
       x2="85" />
    <linearGradient
       xlink:href="#linearGradient5116"
       id="linearGradient22"
       gradientUnits="userSpaceOnUse"
       x1="-55"
       y1="50"
       x2="-7.5"
       y2="50" />
    <linearGradient
       gradientTransform="matrix(0.66666683,0,0,1,9.5833285,0)"
       xlink:href="#linearGradient5116"
       id="linearGradient6555"
       y1="43.755013"
       x1="28.749544"
       y2="86.251488"
       gradientUnits="userSpaceOnUse"
       x2="28.749622" />
    <linearGradient
       xlink:href="#linearGradient5116"
       id="linearGradient6549"
       y1="42.505821"
       x1="28.749746"
       y2="95.626785"
       gradientUnits="userSpaceOnUse"
       x2="28.7498" />
    <linearGradient
       xlink:href="#linearGradient5096"
       id="linearGradient6314"
       y1="48.751461"
       x1="23.750015"
       y2="43.751427"
       gradientUnits="userSpaceOnUse"
       x2="28.75" />
    <linearGradient
       xlink:href="#linearGradient5116"
       id="linearGradient6310"
       y1="50"
       x1="-55"
       y2="50"
       gradientUnits="userSpaceOnUse"
       x2="-7.5" />
    <linearGradient
       gradientTransform="matrix(0.66668853,0,0,1,9.5827047,0)"
       xlink:href="#linearGradient5116"
       id="linearGradient6543"
       y1="81.251801"
       x1="19.381666"
       y2="81.251762"
       gradientUnits="userSpaceOnUse"
       x2="99.059952" />
    <linearGradient
       xlink:href="#linearGradient5116"
       id="linearGradient6561"
       y1="95.622711"
       x1="28.749496"
       y2="42.501755"
       gradientUnits="userSpaceOnUse"
       x2="28.74955" />
    <linearGradient
       xlink:href="#linearGradient5369"
       id="linearGradient6306"
       y1="48.751789"
       x1="23.749765"
       y2="43.751755"
       gradientUnits="userSpaceOnUse"
       x2="28.750084" />
    <linearGradient
       gradientTransform="matrix(0.666645,0,0,1,9.5839563,0)"
       xlink:href="#linearGradient5116"
       id="linearGradient6583"
       y1="81.251999"
       x1="99.058426"
       y2="81.251961"
       gradientUnits="userSpaceOnUse"
       x2="19.374943" />
    <linearGradient
       gradientTransform="translate(63.50016,-5)"
       xlink:href="#linearGradient5116"
       id="linearGradient5965-8"
       y1="12.503391"
       x1="-47.500202"
       y2="55"
       gradientUnits="userSpaceOnUse"
       x2="-47.50016" />
    <linearGradient
       gradientTransform="matrix(0.66666667,0,0,1,9.5833333,0)"
       xlink:href="#linearGradient5012"
       id="linearGradient5680"
       y1="44.7514"
       x1="28.75"
       y2="85.251404"
       gradientUnits="userSpaceOnUse"
       x2="28.75" />
    <linearGradient
       xlink:href="#linearGradient5012-9"
       id="linearGradient5758"
       y1="48.751595"
       x1="74.375679"
       y2="48.751595"
       gradientUnits="userSpaceOnUse"
       x2="23.750023" />
    <linearGradient
       xlink:href="#linearGradient5048"
       id="linearGradient5225"
       y1="48.751595"
       x1="23.750021"
       y2="43.75156"
       gradientUnits="userSpaceOnUse"
       x2="28.750202" />
    <linearGradient
       gradientTransform="matrix(0.66666667,0,0,1,9.5833333,0)"
       xlink:href="#linearGradient5012-9"
       id="linearGradient5227"
       y1="48.751598"
       x1="97.1875"
       y2="48.751598"
       gradientUnits="userSpaceOnUse"
       x2="21.25" />
    <linearGradient
       gradientTransform="matrix(1,0,0,-1,173.75,791)"
       xlink:href="#linearGradient5012"
       id="linearGradient5229"
       y1="13.499711"
       x1="-47.5"
       y2="54"
       gradientUnits="userSpaceOnUse"
       x2="-47.5" />
    <linearGradient
       xlink:href="#linearGradient5012"
       id="linearGradient5718"
       y1="48.751595"
       x1="23.750088"
       y2="48.751595"
       gradientUnits="userSpaceOnUse"
       x2="74.375435" />
    <linearGradient
       gradientTransform="matrix(0.6667,0,0,1,9.582375,0)"
       xlink:href="#linearGradient5012"
       id="linearGradient5258"
       y1="48.751598"
       x1="21.25"
       y2="48.751598"
       gradientUnits="userSpaceOnUse"
       x2="97.183701" />
    <linearGradient
       xlink:href="#linearGradient5012"
       id="linearGradient26"
       gradientUnits="userSpaceOnUse"
       gradientTransform="matrix(0.6667,0,0,1,9.582375,0)"
       x1="21.25"
       y1="48.751598"
       x2="97.183701"
       y2="48.751598" />
    <linearGradient
       xlink:href="#linearGradient5012"
       id="linearGradient28"
       gradientUnits="userSpaceOnUse"
       x1="23.750088"
       y1="48.751595"
       x2="74.375435"
       y2="48.751595" />
    <linearGradient
       xlink:href="#linearGradient5012"
       id="linearGradient30"
       gradientUnits="userSpaceOnUse"
       x1="23.750088"
       y1="48.751595"
       x2="74.375435"
       y2="48.751595" />
    <linearGradient
       xlink:href="#linearGradient5012-9"
       id="linearGradient32"
       gradientUnits="userSpaceOnUse"
       x1="74.375679"
       y1="48.751595"
       x2="23.750023"
       y2="48.751595" />
    <linearGradient
       xlink:href="#linearGradient5048"
       id="linearGradient33"
       gradientUnits="userSpaceOnUse"
       x1="23.750021"
       y1="48.751595"
       x2="28.750202"
       y2="43.75156" />
    <linearGradient
       xlink:href="#linearGradient5012-9"
       id="linearGradient34"
       gradientUnits="userSpaceOnUse"
       x1="74.375679"
       y1="48.751595"
       x2="23.750023"
       y2="48.751595" />
    <linearGradient
       xlink:href="#linearGradient5048"
       id="linearGradient35"
       gradientUnits="userSpaceOnUse"
       x1="23.750021"
       y1="48.751595"
       x2="28.750202"
       y2="43.75156" />
    <linearGradient
       xlink:href="#linearGradient5012-9"
       id="linearGradient36"
       gradientUnits="userSpaceOnUse"
       gradientTransform="matrix(0.66666667,0,0,1,9.5833333,0)"
       x1="97.1875"
       y1="48.751598"
       x2="21.25"
       y2="48.751598" />
    <linearGradient
       xlink:href="#linearGradient5012"
       id="linearGradient38"
       gradientUnits="userSpaceOnUse"
       gradientTransform="matrix(0.66666667,0,0,1,9.5833333,0)"
       x1="28.75"
       y1="44.7514"
       x2="28.75"
       y2="85.251404" />
    <linearGradient
       xlink:href="#linearGradient5012"
       id="linearGradient40"
       gradientUnits="userSpaceOnUse"
       gradientTransform="matrix(0.66666667,0,0,1,9.5833333,0)"
       x1="28.75"
       y1="44.7514"
       x2="28.75"
       y2="85.251404" />
    <linearGradient
       xlink:href="#linearGradient5012"
       id="linearGradient41"
       gradientUnits="userSpaceOnUse"
       gradientTransform="matrix(0.98463815,0,0,-0.98461549,188.76957,101.23107)"
       x1="-47.5"
       y1="13.499711"
       x2="-47.5"
       y2="54" />
    <linearGradient
       xlink:href="#linearGradient5116"
       id="linearGradient42"
       gradientUnits="userSpaceOnUse"
       x1="-55"
       y1="50"
       x2="-7.5"
       y2="50" />
    <linearGradient
       xlink:href="#linearGradient6741-3"
       id="linearGradient4991"
       y1="87.251602"
       x1="28.750198"
       y2="42.754997"
       gradientUnits="userSpaceOnUse"
       x2="28.749949" />
    <linearGradient
       id="linearGradient6741-3">
      <stop
         offset="0"
         style="stop-color:#ab461d"
         id="stop42" />
      <stop
         offset="1"
         style="stop-color:#f36f39"
         id="stop43" />
    </linearGradient>
    <linearGradient
       xlink:href="#linearGradient5069"
       id="linearGradient5076"
       y1="48.751492"
       x1="21.25"
       y2="81.251488"
       x2="21.25"
       gradientUnits="userSpaceOnUse" />
    <linearGradient
       id="linearGradient5069">
      <stop
         offset="0"
         style="stop-color:#f36e39"
         id="stop30" />
      <stop
         offset="1"
         style="stop-color:#973209"
         id="stop31" />
    </linearGradient>
    <linearGradient
       xlink:href="#linearGradient6741-3"
       id="linearGradient4993"
       y1="96.876923"
       x1="28.75025"
       y2="41.255791"
       gradientUnits="userSpaceOnUse"
       x2="28.75" />
    <linearGradient
       xlink:href="#linearGradient5049"
       id="linearGradient4996"
       y1="48.751598"
       x1="22.5"
       y2="42.505802"
       gradientUnits="userSpaceOnUse"
       x2="28.75" />
    <linearGradient
       id="linearGradient5049">
      <stop
         offset="0"
         style="stop-color:#f36e39"
         id="stop46" />
      <stop
         offset="1"
         style="stop-color:#f6926a"
         id="stop47" />
    </linearGradient>
    <linearGradient
       xlink:href="#linearGradient5116"
       id="linearGradient5000"
       y1="50"
       x1="-55"
       y2="50"
       gradientUnits="userSpaceOnUse"
       x2="-7.5" />
    <linearGradient
       xlink:href="#linearGradient6741-3"
       id="linearGradient4998"
       y1="81.251396"
       x1="76.874977"
       y2="81.251602"
       gradientUnits="userSpaceOnUse"
       x2="21.254219" />
    <linearGradient
       xlink:href="#linearGradient6741-3"
       id="linearGradient5002"
       y1="87.251579"
       x1="69.374725"
       y2="42.754974"
       gradientUnits="userSpaceOnUse"
       x2="69.374977" />
    <linearGradient
       xlink:href="#linearGradient5078"
       id="linearGradient5084"
       y1="48.751598"
       x1="21.25"
       y2="81.251602"
       x2="21.249775"
       gradientUnits="userSpaceOnUse" />
    <linearGradient
       id="linearGradient5078">
      <stop
         offset="0"
         style="stop-color:#bd3e0b"
         id="stop36" />
      <stop
         offset="1"
         style="stop-color:#973209"
         id="stop37" />
    </linearGradient>
    <linearGradient
       gradientTransform="matrix(0.98461046,0,0,0.98461788,242.76916,-10.230894)"
       xlink:href="#linearGradient6741-3"
       id="linearGradient5005"
       y1="56"
       x1="-47.5"
       y2="11.503375"
       gradientUnits="userSpaceOnUse"
       x2="-47.500202" />
    <linearGradient
       xlink:href="#linearGradient6741-3"
       id="linearGradient5007"
       y1="96.8769"
       x1="69.375023"
       y2="41.255764"
       gradientUnits="userSpaceOnUse"
       x2="69.375275" />
    <linearGradient
       xlink:href="#linearGradient5049-7"
       id="linearGradient5009"
       y1="48.751598"
       x1="22.5"
       y2="42.505775"
       gradientUnits="userSpaceOnUse"
       x2="28.75" />
    <linearGradient
       id="linearGradient5049-7">
      <stop
         offset="0"
         style="stop-color:#bd3e0b"
         id="stop24" />
      <stop
         offset="1"
         style="stop-color:#f6926a"
         id="stop25" />
    </linearGradient>
    <linearGradient
       xlink:href="#linearGradient6741-3"
       id="linearGradient5011"
       y1="41.251598"
       x1="28.75"
       y2="96.872734"
       gradientUnits="userSpaceOnUse"
       x2="28.74975" />
    <linearGradient
       xlink:href="#linearGradient5024"
       id="linearGradient5013"
       y1="48.751598"
       x1="22.5"
       y2="42.505802"
       gradientUnits="userSpaceOnUse"
       x2="28.75" />
    <linearGradient
       id="linearGradient5024">
      <stop
         offset="0"
         style="stop-color:#973209"
         id="stop13" />
      <stop
         offset="1"
         style="stop-color:#391303"
         id="stop14" />
    </linearGradient>
    <linearGradient
       xlink:href="#linearGradient6741-3"
       id="linearGradient5015"
       y1="81.251602"
       x1="21.250025"
       y2="81.251801"
       gradientUnits="userSpaceOnUse"
       x2="76.870781" />
    <linearGradient
       xlink:href="#linearGradient6741-3"
       id="linearGradient5019"
       y1="41.251575"
       x1="69.375275"
       y2="96.872711"
       gradientUnits="userSpaceOnUse"
       x2="69.375526" />
    <linearGradient
       xlink:href="#linearGradient5024"
       id="linearGradient5021"
       y1="48.751434"
       x1="22.5"
       y2="42.501392"
       gradientUnits="userSpaceOnUse"
       x2="28.74995" />
    <linearGradient
       xlink:href="#linearGradient5116"
       id="linearGradient45"
       gradientUnits="userSpaceOnUse"
       x1="-55"
       y1="50"
       x2="-7.5"
       y2="50" />
  </defs>
  <g
     id="g-ebutton-focused">
    <path
       style="fill:#efeeeb;fill-rule:evenodd;stroke-width:0.984617"
       id="ebutton-focused"
       d="M 52,6.9999 V 39 H 84 V 6.9999 Z" />
    <g
       id="ebutton-focused-left"
       transform="matrix(1,0,0,0.98461846,-11.5,-5.3078308)">
      <path
         style="fill:#efeeeb;fill-rule:evenodd"
         d="M 63.5,45 V 12.5 h -5 V 45 Z"
         id="path172" />
      <use
         width="100%"
         height="100%"
         xlink:href="#path4268"
         transform="matrix(0.8,0,0,1,40.5,-36.25)"
         id="use172" />
    </g>
    <g
       id="ebutton-focused-topleft"
       transform="translate(-11.5,-5.5001)">
      <path
         style="fill:#efeeeb;fill-rule:evenodd"
         d="m 63.5,7.5 c -3.5,0 -5,1.5 -5,5 h 5 z"
         id="path173" />
      <use
         width="100%"
         height="100%"
         xlink:href="#path4274"
         transform="matrix(0.8,0,0,0.8,40.5,-26.5)"
         id="use173" />
    </g>
    <g
       id="ebutton-focused-top"
       transform="matrix(0.98461538,0,0,1,-10.523077,-5.5001)">
      <path
         style="fill:#efeeeb;fill-rule:evenodd"
         d="M 63.5,12.5 H 96 v -5 H 63.5 Z"
         id="path174" />
      <use
         width="100%"
         height="100%"
         xlink:href="#path5144"
         transform="matrix(0,0.8,-1,0,144.75,-10.5)"
         id="use174" />
    </g>
    <g
       id="ebutton-focused-bottomleft"
       transform="translate(-11.5,-6)">
      <path
         style="fill:#efeeeb;fill-rule:evenodd"
         d="m 63.5,50 c -3.5,0 -5,-1.5 -5,-5 h 5 z"
         id="path175" />
      <use
         width="100%"
         height="100%"
         xlink:href="#path5068"
         transform="matrix(0.8,0,0,-0.8,40.5,84)"
         id="use175" />
    </g>
    <g
       id="ebutton-focused-bottom"
       transform="matrix(0.98461538,0,0,1,-10.523077,-6)">
      <path
         style="fill:#efeeeb;fill-rule:evenodd"
         d="M 63.5,45 H 96 v 5 H 63.5 Z"
         id="path176" />
      <use
         width="100%"
         height="100%"
         xlink:href="#path5074"
         transform="matrix(0,-0.8,-1,0,144.75,68)"
         id="use176" />
    </g>
    <use
       width="100%"
       height="100%"
       xlink:href="#ebutton-focused-left"
       id="ebutton-focused-right"
       transform="matrix(-1,0,0,1,136,5.0075e-5)"
       x="0"
       y="0" />
    <use
       width="100%"
       height="100%"
       xlink:href="#ebutton-focused-topleft"
       id="ebutton-focused-topright"
       transform="matrix(-1,0,0,1,136,5.0075e-5)"
       x="0"
       y="0" />
    <use
       width="100%"
       height="100%"
       xlink:href="#ebutton-focused-bottomleft"
       id="ebutton-focused-bottomright"
       transform="matrix(-1,0,0,1,136,5.0075e-5)"
       x="0"
       y="0" />
  </g>
  <g
     id="g-ebutton-toggled">
    <g
       id="ebutton-toggled-left"
       transform="matrix(0.8,0,0,-0.98461539,119,87.001626)">
      <path
         style="fill:url(#linearGradient6201);fill-rule:evenodd"
         d="M 28.75,81.2514 V 48.7516 H 22.5 v 32.5 z"
         id="path88" />
      <path
         style="color:#000000;fill-opacity:0.392"
         d="m 21.25,48.7516 v 32.5 h 1.25 v -32.5 z"
         id="path89" />
    </g>
    <g
       id="ebutton-toggled-topleft"
       transform="matrix(0,0.8,0.8,0,102.99909,-16.000138)">
      <path
         style="fill:url(#linearGradient6119);fill-rule:evenodd"
         d="m 28.7502,42.5016 c -4.37513,0 -6.25015,1.87501 -6.25015,6.25004 h 6.24999 z"
         id="path90" />
      <path
         style="color:#000000;fill:url(#linearGradient5056)"
         d="m 28.75,41.2516 c -5.32361,0 -7.5,2.15143 -7.5,7.5 h 1.25033 c 0,-4.37503 1.8747,-6.25005 6.24973,-6.25005 z"
         id="path91" />
    </g>
    <g
       id="ebutton-toggled-top"
       transform="matrix(0,0.8,0.98461538,0,93.998523,-16)">
      <path
         style="fill:url(#linearGradient4970);fill-rule:evenodd"
         d="M 28.75,81.2514 V 48.7516 h -6.250313 v 32.5 z"
         id="path92" />
      <path
         style="color:#000000;fill-opacity:0.463"
         d="m 21.25,48.7516 v 32.5 h 1.25 v -32.5 z"
         id="path93" />
    </g>
    <path
       style="fill:url(#linearGradient6260);fill-rule:evenodd;stroke-width:0.984615"
       id="ebutton-toggled"
       d="M 142,39 V 7 h 32 v 32 z" />
    <g
       id="ebutton-toggled-bottomleft"
       transform="matrix(0,-0.8,0.8,0,102.99909,62)">
      <path
         style="fill:url(#linearGradient6236);fill-rule:evenodd"
         d="m 28.7504,42.5016 c -4.37503,0 -6.25004,1.87501 -6.25004,6.25004 h 6.24961 z"
         id="path168" />
      <path
         style="color:#000000;fill-opacity:0.392"
         d="m 28.75,41.2516 c -5.31647,0 -7.49962,2.14789 -7.5,7.5 h 1.25033 c 0,-4.37503 1.87507,-6.25005 6.24973,-6.25005 z"
         id="path169" />
    </g>
    <g
       id="ebutton-toggled-bottom"
       transform="matrix(0,-0.8,0.98461538,0,93.998523,62)">
      <path
         style="fill:url(#linearGradient6229);fill-rule:evenodd"
         d="M 28.75,81.2514 V 48.7516 H 22.5 v 32.5 z"
         id="path170" />
      <path
         style="color:#000000;fill-opacity:0.392"
         d="m 21.25,48.7516 v 32.5 h 1.25 v -32.5 z"
         id="path171" />
    </g>
    <use
       width="100%"
       height="100%"
       xlink:href="#ebutton-toggled-left"
       id="ebutton-toggled-right"
       transform="matrix(-1,0,0,1,316.0002,-2.3020155e-5)"
       x="0"
       y="0" />
    <use
       width="100%"
       height="100%"
       xlink:href="#ebutton-toggled-topleft"
       id="ebutton-toggled-topright"
       transform="matrix(-1,0,0,1,316.0004,-2.32e-5)"
       x="0"
       y="0" />
    <use
       width="100%"
       height="100%"
       xlink:href="#ebutton-toggled-bottomleft"
       id="ebutton-toggled-bottomright"
       transform="matrix(-1,0,0,1,316.0004,-2.32e-5)"
       x="0"
       y="0" />
  </g>
  <g
     id="g-ebutton-normal">
    <g
       id="ebutton-normal-left"
       transform="matrix(0.8,0,0,0.98461543,-16,-41.000102)">
      <path
         style="fill:url(#linearGradient5959);fill-rule:evenodd"
         d="M 28.75,81.25 V 48.75 H 22.5 v 32.5 z"
         id="path85" />
      <path
         style="color:#000000;fill-opacity:0.278"
         id="path4268"
         d="m 21.25,48.75 v 32.5 h 1.25 v -32.5 z" />
    </g>
    <g
       id="ebutton-normal-topleft"
       transform="matrix(0.8,0,0,0.8,-16,-32.0001)">
      <path
         style="display:inline;fill:url(#linearGradient5802);fill-rule:evenodd"
         d="m 28.75,42.5 c -4.375,0 -6.25,1.875 -6.25,6.25 h 6.25 z"
         id="path86" />
      <path
         style="color:#000000;fill:url(#linearGradient5183)"
         id="path4274"
         d="m 28.75,41.25 c -5.3,0 -7.5,2.23 -7.5,7.5 h 1.25 c 0,-4.375 1.875,-6.25 6.25,-6.245 z" />
    </g>
    <g
       style="fill:url(#linearGradient22)"
       id="ebutton-normal-top"
       transform="matrix(0,0.8,-0.98461538,0,87,-16.0001)">
      <path
         style="fill:url(#linearGradient6011);fill-rule:evenodd"
         d="M 28.75,81.25 V 48.75 H 22.5 v 32.5 z"
         id="path87" />
      <path
         style="color:#000000;fill:#000000;fill-opacity:0.235"
         id="path5144"
         d="m 21.25,48.75 v 32.5 h 1.25 v -32.5 z" />
    </g>
    <path
       style="fill:url(#linearGradient5965);fill-rule:evenodd;stroke-width:0.984616"
       id="ebutton-normal"
       d="M 7,6.9999985 V 39 H 39 V 6.9999985 Z" />
    <g
       id="ebutton-normal-bottomleft"
       transform="matrix(0.8,0,0,-0.8,-16,78)">
      <path
         style="fill:url(#linearGradient5967);fill-rule:evenodd"
         d="m 28.75,42.5 c -4.375,0 -6.25,1.875 -6.25,6.25 h 6.25 z"
         id="path166" />
      <path
         style="color:#000000;fill:url(#linearGradient5101)"
         id="path5068"
         d="m 28.75,41.25 c -5.3,0 -7.5,2.25 -7.5,7.5 h 1.25 c 0,-4.375 1.875,-6.25 6.25,-6.25 z" />
    </g>
    <g
       style="fill:url(#linearGradient5274)"
       id="ebutton-normal-bottom"
       transform="matrix(0,-0.8,-0.98461538,0,87,62)">
      <path
         style="fill:url(#linearGradient5886);fill-rule:evenodd"
         d="M 28.75,81.25 V 48.75 H 22.5 v 32.5 z"
         id="path167" />
      <path
         style="color:#000000;fill:#000000;fill-opacity:0.463"
         id="path5074"
         d="m 21.25,48.75 v 32.5 h 1.25 v -32.5 z" />
    </g>
    <use
       width="100%"
       height="100%"
       xlink:href="#ebutton-normal-left"
       id="ebutton-normal-right"
       transform="matrix(-1,0,0,1,46,0)"
       x="0"
       y="0" />
    <use
       width="100%"
       height="100%"
       xlink:href="#ebutton-normal-topleft"
       id="ebutton-normal-topright"
       transform="matrix(-1,0,0,1,46,0)"
       x="0"
       y="0" />
    <use
       width="100%"
       height="100%"
       xlink:href="#ebutton-normal-bottomleft"
       id="ebutton-normal-bottomright"
       transform="matrix(-1,0,0,1,46,0)"
       x="0"
       y="0" />
  </g>
  <g
     id="g-ebutton-pressed">
    <use
       width="100%"
       height="100%"
       xlink:href="#ebutton-normal-left"
       id="ebutton-pressed-right"
       transform="rotate(180,68,22.99995)"
       x="0"
       y="0" />
    <use
       width="100%"
       height="100%"
       xlink:href="#ebutton-normal-topleft"
       id="ebutton-pressed-bottomright"
       transform="rotate(180,68,22.999925)"
       x="0"
       y="0" />
    <use
       width="100%"
       height="100%"
       xlink:href="#ebutton-normal-top"
       id="ebutton-pressed-bottom"
       transform="rotate(180,68,22.999925)"
       x="0"
       y="0" />
    <use
       width="100%"
       height="100%"
       xlink:href="#ebutton-normal-bottomleft"
       id="ebutton-pressed-topright"
       transform="rotate(180,68,22.999973)"
       x="0"
       y="0" />
    <use
       width="100%"
       height="100%"
       xlink:href="#ebutton-normal-bottom"
       id="ebutton-pressed-top"
       transform="rotate(180,68,22.999973)"
       x="0"
       y="0" />
    <use
       width="100%"
       height="100%"
       xlink:href="#ebutton-normal-left"
       id="ebutton-pressed-left"
       transform="matrix(1,0,0,-1,90,45.999849)"
       x="0"
       y="0" />
    <use
       width="100%"
       height="100%"
       xlink:href="#ebutton-normal-topleft"
       id="ebutton-pressed-bottomleft"
       transform="matrix(1,0,0,-1,90,45.999849)"
       x="0"
       y="0" />
    <use
       width="100%"
       height="100%"
       xlink:href="#ebutton-normal-bottomleft"
       id="ebutton-pressed-topleft"
       transform="matrix(1,0,0,-1,90,45.999947)"
       x="0"
       y="0" />
    <use
       width="100%"
       height="100%"
       xlink:href="#ebutton-normal"
       id="ebutton-pressed"
       transform="matrix(1,0,0,-1,90,45.999999)"
       x="0"
       y="0" />
  </g>
  <metadata
     id="metadata25">
    <rdf:RDF>
      <cc:Work
         rdf:about="" />
    </rdf:RDF>
  </metadata>
  <g
     id="g-button-normal"
     transform="translate(-4e-5,3.99992)">
    <g
       id="button-normal-left"
       transform="matrix(0.8,0,0,0.98462714,-16,3.999047)">
      <path
         style="fill:url(#linearGradient6555);fill-rule:evenodd"
         d="m 28.75,81.25 v -32.5 h -5 v 32.5 z"
         id="path281" />
      <path
         style="color:#000000;fill-opacity:0.278"
         id="path5294"
         d="m 21.25,48.75 v 32.5 h 2.5 v -32.5 z" />
    </g>
    <g
       id="button-normal-topleft"
       transform="matrix(0.8,0,0,0.8,-16,12.99872)">
      <path
         style="fill:url(#linearGradient6549);fill-rule:evenodd"
         d="m 28.7501,43.7514 c -3.75003,0 -5,1.25 -5,5 l 4.9999,2e-4 z"
         id="path282" />
      <path
         style="color:#000000;fill:url(#linearGradient6314)"
         id="path5300"
         d="m 28.75,41.2516 c -5.29258,0 -7.5,2.21943 -7.5,7.5 h 2.5 c 0,-3.75003 1.25,-5 5,-5 z" />
    </g>
    <g
       style="fill:url(#linearGradient42)"
       id="button-normal-top"
       transform="matrix(0,0.8,-0.98461538,0,87,28.99962)">
      <path
         style="fill:url(#linearGradient6543);fill-rule:evenodd"
         d="m 28.75,81.25 v -32.5 h -5 v 32.5 z"
         id="path283" />
      <path
         style="color:#000000;fill:#000000;fill-opacity:0.235"
         id="path5306"
         d="m 21.25,48.75 v 32.5 h 2.5 v -32.5 z" />
    </g>
    <g
       id="button-normal-bottomleft"
       transform="matrix(0.8,0,0,-0.8,-15.99992,123.00136)">
      <path
         style="fill:url(#linearGradient6561);fill-rule:evenodd"
         d="m 28.7498,43.7518 c -3.75003,0 -5,1.25 -5,5 l 5.0002,-2e-4 z"
         id="path284" />
      <path
         style="color:#000000;fill:url(#linearGradient6306)"
         id="path5314"
         d="m 28.75,41.2516 c -5.29333,0 -7.50025,2.25878 -7.5,7.5 h 2.49977 c 0,-3.75003 1.25,-5 5,-5 z" />
    </g>
    <g
       style="fill:url(#linearGradient6310)"
       id="button-normal-bottom"
       transform="matrix(0,-0.8,-0.98461538,0,87,107)">
      <path
         style="fill:url(#linearGradient6583);fill-rule:evenodd"
         d="m 28.75,81.25 v -32.5 h -5 v 32.5 z"
         id="path285" />
      <path
         style="color:#000000;fill:#000000;fill-opacity:0.463"
         id="path5320"
         d="m 21.25,48.75 v 32.5 h 2.5 v -32.5 z" />
    </g>
    <use
       width="100%"
       height="100%"
       xlink:href="#button-normal-left"
       id="button-normal-right"
       transform="matrix(-1,0,0,1,46,3.8e-4)"
       x="0"
       y="0" />
    <use
       width="100%"
       height="100%"
       xlink:href="#button-normal-topleft"
       id="button-normal-topright"
       transform="matrix(-1,0,0,1,46.00004,8e-5)"
       x="0"
       y="0" />
    <use
       width="100%"
       height="100%"
       xlink:href="#button-normal-bottomleft"
       id="button-normal-bottomright"
       transform="matrix(-1,0,0,1,46,0)"
       x="0"
       y="0" />
    <use
       width="100%"
       height="100%"
       xlink:href="#ebutton-normal"
       id="button-normal"
       transform="translate(0,45.000002)" />
  </g>
  <g
     id="g-button-pressed"
     transform="translate(-4e-5,3.99992)">
    <use
       width="100%"
       height="100%"
       xlink:href="#button-normal-left"
       id="button-pressed-right"
       transform="rotate(180,68,68.000001)"
       x="0"
       y="0" />
    <use
       width="100%"
       height="100%"
       xlink:href="#button-normal-topleft"
       id="button-pressed-bottomright"
       transform="rotate(180,68.00002,67.99996)"
       x="0"
       y="0" />
    <use
       width="100%"
       height="100%"
       xlink:href="#button-normal-top"
       id="button-pressed-bottom"
       transform="rotate(180,68,67.999875)"
       x="0"
       y="0" />
    <use
       width="100%"
       height="100%"
       xlink:href="#button-normal-bottomleft"
       id="button-pressed-topright"
       transform="rotate(180,68,68)"
       x="0"
       y="0" />
    <use
       width="100%"
       height="100%"
       xlink:href="#button-normal-bottom"
       id="button-pressed-top"
       transform="matrix(-0.9986087,0,0,-1,135.99018,136.00174)"
       x="0"
       y="0" />
    <use
       width="100%"
       height="100%"
       xlink:href="#button-normal-left"
       id="button-pressed-left"
       transform="matrix(1,0,0,-1,90,136)"
       x="0"
       y="0" />
    <use
       width="100%"
       height="100%"
       xlink:href="#button-normal-topleft"
       id="button-pressed-bottomleft"
       transform="matrix(1,0,0,-1,89.99996,136.00005)"
       x="0"
       y="0" />
    <use
       width="100%"
       height="100%"
       xlink:href="#button-normal-bottomleft"
       id="button-pressed-topleft"
       transform="matrix(1,0,0,-1,90.044442,136.00174)"
       x="0"
       y="0" />
    <use
       width="100%"
       height="100%"
       xlink:href="#ebutton-normal"
       id="button-pressed"
       transform="matrix(1,0,0,-1,90,91)" />
  </g>
  <g
     id="g-button-toggled"
     transform="translate(-4e-5,3.99992)">
    <g
       id="button-toggled-left"
       transform="matrix(0.8,0,0,-0.98461849,118.99926,132.00173)">
      <path
         style="fill:url(#linearGradient38);fill-rule:evenodd"
         d="M 28.75,81.2514 V 48.7516 h -5 v 32.5 z"
         id="path37" />
      <path
         style="color:#000000;fill-opacity:0.392"
         d="m 21.25,48.7516 v 32.5 h 2.5 v -32.5 z"
         id="path38" />
    </g>
    <g
       id="button-toggled-topleft"
       transform="matrix(0,0.8,0.8,0,102.99835,29)">
      <path
         style="fill:url(#linearGradient32);fill-rule:evenodd"
         d="m 28.7502,43.7516 c -3.74986,0.02209 -5,1.26772 -5,5 h 5 z"
         id="path31" />
      <path
         style="color:#000000;fill:url(#linearGradient33)"
         d="m 28.75,41.2516 c -5.32361,0 -7.5,2.15143 -7.5,7.5 h 2.5 c 0,-3.75003 1.25,-5 5,-5 z"
         id="path32" />
    </g>
    <g
       id="button-toggled-top"
       transform="matrix(0,0.8,0.98463811,0,93.996677,29)">
      <path
         style="fill:url(#linearGradient36);fill-rule:evenodd"
         d="M 28.75,81.2514 V 48.7516 h -5 v 32.5 z"
         id="path35" />
      <path
         style="color:#000000;fill-opacity:0.463"
         d="m 21.25,48.7516 v 32.5 h 2.49969 v -32.5 z"
         id="path36" />
    </g>
    <path
       style="fill:url(#linearGradient41);fill-rule:evenodd;stroke-width:0.984627"
       id="button-toggled"
       d="M 141.99926,84.000003 V 52 H 174 v 32.000003 z" />
    <g
       id="button-toggled-bottomleft"
       transform="matrix(0,-0.8,0.8,0,102.99835,107.0002)">
      <path
         style="fill:url(#linearGradient28);fill-rule:evenodd"
         d="m 28.7504,43.7516 c -3.75028,-0.0055 -5,1.24563 -5,5 h 5 z"
         id="path27" />
      <path
         style="color:#000000;fill-opacity:0.392"
         d="m 28.75,41.2516 c -5.31647,0 -7.49962,2.14789 -7.5,7.5 h 2.5004 c 0,-3.75003 1.25,-5 5,-5 z"
         id="path28" />
    </g>
    <g
       id="button-toggled-bottom"
       transform="matrix(0,-0.8,0.98463508,0,93.996825,107)">
      <path
         style="fill:url(#linearGradient26);fill-rule:evenodd"
         d="M 28.75,81.2514 V 48.7516 h -5 v 32.5 z"
         id="path25" />
      <path
         style="color:#000000;fill-opacity:0.392"
         d="m 21.25,48.7516 v 32.5 h 2.5 v -32.5 z"
         id="path26" />
    </g>
    <g
       id="button-toggled-right"
       transform="matrix(-0.8,0,0,-0.98461842,196.9999,132.00177)">
      <path
         style="fill:url(#linearGradient40);fill-rule:evenodd"
         d="M 28.75,81.2514 V 48.7516 h -5 v 32.5 z"
         id="path39" />
      <path
         style="color:#000000;fill-opacity:0.392"
         d="m 21.25,48.7516 v 32.5 h 2.5 v -32.5 z"
         id="path40" />
    </g>
    <g
       id="button-toggled-topright"
       transform="matrix(0,0.8,-0.8,0,213.00101,28.999994)">
      <path
         style="fill:url(#linearGradient34);fill-rule:evenodd"
         d="m 28.7502,43.7516 c -3.74986,0.02209 -5,1.26772 -5,5 h 5 z"
         id="path33" />
      <path
         style="color:#000000;fill:url(#linearGradient35)"
         d="m 28.75,41.2516 c -5.32361,0 -7.5,2.15143 -7.5,7.5 h 2.5 c 0,-3.75003 1.25,-5 5,-5 z"
         id="path34" />
    </g>
    <g
       id="button-toggled-bottomright"
       transform="matrix(0,-0.8,-0.8,0,213.00101,107.00019)">
      <path
         style="fill:url(#linearGradient30);fill-rule:evenodd"
         d="m 28.7504,43.7516 c -3.75028,-0.0055 -5,1.24563 -5,5 h 5 z"
         id="path29" />
      <path
         style="color:#000000;fill-opacity:0.392"
         d="m 28.75,41.2516 c -5.31647,0 -7.49962,2.14789 -7.5,7.5 h 2.5004 c 0,-3.75003 1.25,-5 5,-5 z"
         id="path30" />
    </g>
  </g>
  <g
     id="g-button-focused"
     transform="translate(-4e-5,3.99992)">
    <path
       style="fill:#efeeeb;fill-rule:evenodd;stroke-width:0.984613"
       id="button-focused"
       d="M 52,52.00018 V 84 H 84 V 52.00018 Z" />
    <g
       id="button-focused-left"
       transform="matrix(1,0,0,0.98461292,-12,-9.5382277)">
      <path
         style="fill:#efeeeb;fill-rule:evenodd"
         d="M 64,95 V 62.5 H 60 V 95 Z"
         id="path346" />
      <use
         width="100%"
         height="100%"
         xlink:href="#path5294"
         transform="matrix(0.8,0,0,1,41,13.75)"
         id="use346" />
    </g>
    <g
       id="button-focused-topleft"
       transform="translate(-12,-10.49992)">
      <path
         style="fill:#efeeeb;fill-rule:evenodd"
         d="m 64,58.5 c -3,0 -4,1 -4,4 h 4 z"
         id="path347" />
      <use
         width="100%"
         height="100%"
         xlink:href="#path5300"
         transform="matrix(0.8,0,0,0.8,41,23.5)"
         id="use347" />
    </g>
    <g
       id="button-focused-top"
       transform="matrix(0.98461538,0,0,1,-11.015385,-10.49992)">
      <path
         style="fill:#efeeeb;fill-rule:evenodd"
         d="m 64,62.5 h 32.5 v -4 H 64 Z"
         id="path348" />
      <use
         width="100%"
         height="100%"
         xlink:href="#path5306"
         transform="matrix(0,0.8,-1,0,145.25,39.5)"
         id="use348" />
    </g>
    <g
       id="button-focused-bottomleft"
       transform="translate(-11.999816,-10.99872)">
      <path
         style="fill:#efeeeb;fill-rule:evenodd"
         d="m 64,99 c -3,0 -4,-1 -4,-4 h 4 z"
         id="path349" />
      <use
         width="100%"
         height="100%"
         xlink:href="#path5314"
         transform="matrix(0.8,0,0,-0.8,41,134)"
         id="use349" />
    </g>
    <g
       id="button-focused-bottom"
       transform="matrix(0.98460406,0,0,1,-11.014292,-11)">
      <path
         style="fill:#efeeeb;fill-rule:evenodd"
         d="m 64,95 h 32.5 v 4 H 64 Z"
         id="path350" />
      <use
         width="100%"
         height="100%"
         xlink:href="#path5320"
         transform="matrix(0,0.8,-1,0,145.25,82)"
         id="use350" />
    </g>
    <use
       width="100%"
       height="100%"
       xlink:href="#button-focused-left"
       id="button-focused-right"
       transform="matrix(-1,0,0,1,136.00018,5.025e-5)"
       x="0"
       y="0" />
    <use
       width="100%"
       height="100%"
       xlink:href="#button-focused-topleft"
       id="button-focused-topright"
       transform="matrix(-1,0,0,1,136.00018,5.025e-5)"
       x="0"
       y="0" />
    <use
       width="100%"
       height="100%"
       xlink:href="#button-focused-bottomleft"
       id="button-focused-bottomright"
       transform="matrix(-1,0,0,1,136.00092,5.015e-5)"
       x="0"
       y="0" />
  </g>
  <g
     id="g-tbutton-normal">
    <g
       id="tbutton-normal-left"
       transform="matrix(0.8,0,0,0.98461852,173,-41.00183)">
      <path
         style="fill:url(#linearGradient4991);fill-rule:evenodd"
         d="M 28.75,81.2514 V 48.7516 h -7.5 v 32.5 z"
         id="path177" />
      <path
         style="color:#000000;fill:url(#linearGradient5076)"
         d="m 21.25,48.7516 v 32.5 h 1.25 v -32.5 z"
         id="path178" />
    </g>
    <g
       id="tbutton-normal-topleft"
       transform="matrix(0.8,0,0,0.8,173.00012,-32.001112)">
      <path
         style="fill:url(#linearGradient4993);fill-rule:evenodd"
         d="m 28.75,41.2516 c -6.875,0 -7.5,0.62481 -7.5,7.5 h 7.5 z"
         id="path179" />
      <path
         style="color:#000000;fill:url(#linearGradient4996)"
         d="m 28.75,41.2516 c -6.875,0 -7.5,0.62481 -7.5,7.5 h 1.25 c 0,-5.91631 0.393715,-6.25019 6.25,-6.2458 z"
         id="path180" />
    </g>
    <g
       style="fill:url(#linearGradient45)"
       id="tbutton-normal-top"
       transform="matrix(0,0.8,-0.98461662,0,276.00164,-16.000081)">
      <path
         style="fill:url(#linearGradient4998);fill-rule:evenodd"
         d="M 28.75,81.2514 V 48.7516 h -7.5 v 32.5 z"
         id="path181" />
      <path
         style="color:#000000;fill:#f6926a"
         d="m 21.2542,48.7516 v 32.5 h 1.25 v -32.5 z"
         id="path182" />
    </g>
    <g
       id="tbutton-normal-right"
       transform="matrix(-0.8,0,0,0.98462094,250.99999,-41.001977)">
      <path
         style="fill:url(#linearGradient5002);fill-rule:evenodd"
         d="M 28.75,81.2514 V 48.7516 h -7.5 v 32.5 z"
         id="path183" />
      <path
         style="color:#000000;fill:url(#linearGradient5084)"
         d="m 21.25,48.7516 v 32.5 h 1.25 v -32.5 z"
         id="path184" />
    </g>
    <path
       style="fill:url(#linearGradient5005);fill-rule:evenodd;stroke-width:0.984614"
       id="tbutton-normal"
       d="M 196.00016,6.9999189 V 39 H 228 V 6.9999189 Z" />
    <g
       id="tbutton-normal-topright"
       transform="matrix(-0.8,0,0,0.8,250.99985,-32.001141)">
      <path
         style="fill:url(#linearGradient5007);fill-rule:evenodd"
         d="m 28.75,41.2516 c -6.8751,0 -7.5001,0.624785 -7.5,7.5 h 7.5 z"
         id="path185" />
      <path
         style="color:#000000;fill:url(#linearGradient5009)"
         d="m 28.75,41.2516 c -6.8751,0 -7.5001,0.624785 -7.5,7.5 h 1.25 c 0,-5.91634 0.333766,-6.25021 6.24994,-6.25021 z"
         id="path186" />
    </g>
    <g
       id="tbutton-normal-bottomleft"
       transform="matrix(0.8,0,0,-0.8,173.00022,78.00103)">
      <path
         style="fill:url(#linearGradient5011);fill-rule:evenodd"
         d="m 28.75,41.2516 c -6.87525,0 -7.50025,0.625143 -7.5,7.5 h 7.5 z"
         id="path187" />
      <path
         style="color:#000000;fill:url(#linearGradient5013)"
         d="m 28.75,41.2516 c -6.87525,0 -7.50025,0.625143 -7.5,7.5 h 1.25 c 0,-5.9407 0.308908,-6.24985 6.25,-6.2458 z"
         id="path188" />
    </g>
    <g
       style="fill:url(#linearGradient5000)"
       id="tbutton-normal-bottom"
       transform="matrix(0,-0.8,-0.98461354,0,276.00149,62)">
      <path
         style="fill:url(#linearGradient5015);fill-rule:evenodd"
         d="M 28.75,81.2514 V 48.7516 h -7.5 v 32.5 z"
         id="path189" />
      <path
         style="color:#000000;fill:#391303"
         d="m 21.2542,48.7516 v 32.5 h 1.25 v -32.5 z"
         id="path190" />
    </g>
    <g
       id="tbutton-normal-bottomright"
       transform="matrix(-0.8,0,0,-0.8,250.99995,78.000961)">
      <path
         style="fill:url(#linearGradient5019);fill-rule:evenodd"
         d="m 28.75,41.2516 c -6.87485,0 -7.49985,0.625117 -7.5,7.5 h 7.5 z"
         id="path191" />
      <path
         style="color:#000000;fill:url(#linearGradient5021)"
         d="m 28.75,41.2516 c -6.87485,0 -7.49985,0.625117 -7.5,7.5 h 1.25 c 0,-5.88783 0.383361,-6.24988 6.24994,-6.25021 z"
         id="path192" />
    </g>
  </g>
  <g
     id="g-tbutton-focused">
    <path
       style="fill:#ffffff;fill-opacity:0.157;fill-rule:evenodd;stroke-width:0.992276"
       id="tbutton-focused-left"
       d="M 240.9999,38.999902 V 7.0002 h -6 v 31.999898 z" />
    <path
       style="fill:#ffffff;fill-opacity:0.157;fill-rule:evenodd"
       id="tbutton-focused-topleft"
       d="m 240.9999,0.99999999 c -5.5,0 -6,0.49984501 -6,6.00000001 h 6 z" />
    <path
       style="fill:#ffffff;fill-opacity:0.157;fill-rule:evenodd;stroke-width:0.992279"
       id="tbutton-focused-top"
       d="M 241.0001,7 H 273 V 0.99999999 h -32.0001 z" />
    <path
       style="fill:#ffffff;fill-opacity:0.157;fill-rule:evenodd;stroke-width:0.992276"
       id="tbutton-focused-right"
       d="M 273,38.999851 V 7.000149 h 6 v 31.999898 z" />
    <path
       style="fill:#ffffff;fill-opacity:0.157;fill-rule:evenodd;stroke-width:0.984614"
       id="tbutton-focused"
       d="M 241.0001,7 V 39 H 273 V 7 Z" />
    <path
       style="fill:#ffffff;fill-opacity:0.157;fill-rule:evenodd"
       id="tbutton-focused-topright"
       d="m 273,0.99999999 c 5.5,0 6,0.49982501 6,6.00000001 h -6 z" />
    <path
       style="fill:#ffffff;fill-opacity:0.157;fill-rule:evenodd"
       id="tbutton-focused-bottomleft"
       d="m 241.0001,44.999681 c -5.50016,0 -6,-0.500111 -6,-6 h 6 z" />
    <path
       style="fill:#ffffff;fill-opacity:0.157;fill-rule:evenodd;stroke-width:0.992276"
       id="tbutton-focused-bottom"
       d="M 241.0003,38.999681 H 273 v 6 h -31.9999 z" />
    <path
       style="fill:#ffffff;fill-opacity:0.157;fill-rule:evenodd"
       id="tbutton-focused-bottomright"
       d="m 273,44.999681 c 5.49984,0 6,-0.5 6,-6 h -6 z" />
  </g>
</svg>
